<mxfile host="app.diagrams.net" modified="2020-12-09T10:19:32.857Z" agent="5.0 (Windows)" etag="9e8W0T_CM10avEov1SH9" version="13.11.0" type="github">
  <diagram id="xLn9LjNyMLjqwxr8wcTz" name="Page-1">
    <mxGraphModel dx="2062" dy="1123" grid="1" gridSize="10" guides="1" tooltips="1" connect="1" arrows="1" fold="1" page="1" pageScale="1" pageWidth="1169" pageHeight="1654" math="0" shadow="0">
      <root>
        <mxCell id="0" />
        <mxCell id="1" parent="0" />
        <mxCell id="waswWFTsDLJ946cWu1a3-1" value="&lt;div&gt;doc&lt;/div&gt;" style="rounded=0;whiteSpace=wrap;html=1;" vertex="1" parent="1">
          <mxGeometry x="80" y="150" width="120" height="60" as="geometry" />
        </mxCell>
        <mxCell id="waswWFTsDLJ946cWu1a3-2" value="&lt;div&gt;Contains all project diagrams and documents&lt;/div&gt;" style="text;html=1;align=center;verticalAlign=middle;resizable=0;points=[];autosize=1;" vertex="1" parent="1">
          <mxGeometry x="240" y="170" width="270" height="20" as="geometry" />
        </mxCell>
        <mxCell id="waswWFTsDLJ946cWu1a3-3" value="lib" style="rounded=0;whiteSpace=wrap;html=1;" vertex="1" parent="1">
          <mxGeometry x="80" y="230" width="120" height="60" as="geometry" />
        </mxCell>
        <mxCell id="waswWFTsDLJ946cWu1a3-4" value="&lt;div&gt;Contains external libraries needed for the project&lt;/div&gt;" style="text;html=1;align=center;verticalAlign=middle;resizable=0;points=[];autosize=1;" vertex="1" parent="1">
          <mxGeometry x="235" y="250" width="280" height="20" as="geometry" />
        </mxCell>
        <mxCell id="waswWFTsDLJ946cWu1a3-5" value="out" style="rounded=0;whiteSpace=wrap;html=1;" vertex="1" parent="1">
          <mxGeometry x="80" y="310" width="120" height="60" as="geometry" />
        </mxCell>
        <mxCell id="waswWFTsDLJ946cWu1a3-6" value="&lt;div&gt;Contains compiled, build file&lt;/div&gt;" style="text;html=1;align=center;verticalAlign=middle;resizable=0;points=[];autosize=1;" vertex="1" parent="1">
          <mxGeometry x="290" y="330" width="170" height="20" as="geometry" />
        </mxCell>
        <mxCell id="waswWFTsDLJ946cWu1a3-7" value="postman" style="rounded=0;whiteSpace=wrap;html=1;" vertex="1" parent="1">
          <mxGeometry x="80" y="390" width="120" height="60" as="geometry" />
        </mxCell>
        <mxCell id="waswWFTsDLJ946cWu1a3-8" value="Contains Postman collections for web service testing" style="text;html=1;align=center;verticalAlign=middle;resizable=0;points=[];autosize=1;" vertex="1" parent="1">
          <mxGeometry x="220" y="410" width="310" height="20" as="geometry" />
        </mxCell>
        <mxCell id="waswWFTsDLJ946cWu1a3-9" value="src/main/java/accountingsystem" style="rounded=0;whiteSpace=wrap;html=1;" vertex="1" parent="1">
          <mxGeometry x="80" y="470" width="140" height="60" as="geometry" />
        </mxCell>
        <mxCell id="waswWFTsDLJ946cWu1a3-10" value="Contains all source code for the project" style="text;html=1;align=center;verticalAlign=middle;resizable=0;points=[];autosize=1;" vertex="1" parent="1">
          <mxGeometry x="260" y="490" width="230" height="20" as="geometry" />
        </mxCell>
        <mxCell id="waswWFTsDLJ946cWu1a3-11" value="src/main/resources" style="rounded=0;whiteSpace=wrap;html=1;" vertex="1" parent="1">
          <mxGeometry x="80" y="550" width="120" height="60" as="geometry" />
        </mxCell>
        <mxCell id="waswWFTsDLJ946cWu1a3-12" value="&lt;div&gt;Contains configuration files and&lt;/div&gt;&lt;div&gt;JavaFX user interface files&lt;br&gt;&lt;/div&gt;" style="text;html=1;align=center;verticalAlign=middle;resizable=0;points=[];autosize=1;" vertex="1" parent="1">
          <mxGeometry x="280" y="565" width="190" height="30" as="geometry" />
        </mxCell>
      </root>
    </mxGraphModel>
  </diagram>
</mxfile>
